<svg xmlns="http://www.w3.org/2000/svg" width="32" height="32.001" viewBox="0 0 32 32.001">
  <g id="exclamation-mark-inside-a-circle-svgrepo-com" transform="translate(-0.001)">
    <g id="c129_exclamation" transform="translate(0.001)">
      <path id="Path_4" data-name="Path 4" d="M16,0A16,16,0,1,0,32,16,16,16,0,0,0,16,0Zm0,30.362A14.363,14.363,0,1,1,30.363,16,14.363,14.363,0,0,1,16,30.362Z" transform="translate(-0.001)" fill="#f60"/>
      <path id="Path_5" data-name="Path 5" d="M16.124,18.975l.7-14.4H11.8l.7,14.4Z" transform="translate(1.703 0.661)" fill="#f60"/>
      <path id="Path_6" data-name="Path 6" d="M14.359,18.546A2.746,2.746,0,0,0,11.5,21.437a2.748,2.748,0,0,0,2.8,2.893h.064a2.736,2.736,0,0,0,2.826-2.893A2.735,2.735,0,0,0,14.359,18.546Z" transform="translate(1.659 2.678)" fill="#f60"/>
    </g>
  </g>
</svg>
