<svg id="link-interface-symbol-svgrepo-com" xmlns="http://www.w3.org/2000/svg" width="32" height="32" viewBox="0 0 32 32">
  <g id="Group_16" data-name="Group 16">
    <path id="Path_8" data-name="Path 8" d="M13.6,154.565a1.443,1.443,0,0,1,2.036,0L18.4,157.32a.508.508,0,0,0,.719,0l2.756-2.756a.508.508,0,0,0,0-.719l-2.756-2.756a6.355,6.355,0,0,0-8.986,0l-8.267,8.267a6.353,6.353,0,0,0,0,8.986L4.617,171.1a6.353,6.353,0,0,0,8.986,0l4.659-4.659a.509.509,0,0,0-.359-.868h-.034c-.164.011-.33.016-.494.016a7.3,7.3,0,0,1-3.68-.995.509.509,0,0,0-.616.08l-2.95,2.95a1.441,1.441,0,0,1-2.036,0l-2.756-2.756a1.439,1.439,0,0,1,0-2.036Z" transform="translate(0 -140.961)" fill="#f60"/>
    <path id="Path_9" data-name="Path 9" d="M200.285,4.617,197.53,1.861a6.354,6.354,0,0,0-8.986,0l-4.659,4.661a.509.509,0,0,0,.359.868h.034c.166-.011.333-.017.5-.017a7.245,7.245,0,0,1,3.672.994.509.509,0,0,0,.617-.079l2.952-2.952a1.443,1.443,0,0,1,2.036,0l2.756,2.756a1.444,1.444,0,0,1,0,2.038L188.543,18.4a1.441,1.441,0,0,1-2.037,0l-2.755-2.755a.508.508,0,0,0-.719,0L180.277,18.4a.509.509,0,0,0,0,.719l2.756,2.756a6.353,6.353,0,0,0,8.986,0l8.267-8.267a6.354,6.354,0,0,0,0-8.987Z" transform="translate(-170.147 0)" fill="#f60"/>
  </g>
</svg>
