<svg id="remove-button-svgrepo-com" xmlns="http://www.w3.org/2000/svg" width="64" height="64" viewBox="0 0 64 64">
  <g id="c142_x">
    <path id="Path_7" data-name="Path 7" d="M31.994,0A32,32,0,1,0,64,32,32,32,0,0,0,31.994,0ZM45.753,40.666l-5.1,5.09S32.594,37.1,31.992,37.1s-8.658,8.651-8.658,8.651l-5.1-5.09s8.66-7.946,8.66-8.653-8.66-8.667-8.66-8.667l5.1-5.1S31.466,26.9,31.992,26.9s8.665-8.655,8.665-8.655l5.1,5.1s-8.662,8.063-8.662,8.667C37.091,32.587,45.753,40.666,45.753,40.666Z" fill="#f60"/>
  </g>
</svg>
